<svg width="70" height="27" viewBox="0 0 70 27" fill="none" xmlns="http://www.w3.org/2000/svg">
<path d="M28.3007 0.943369C20.4531 2.18751 6.19331 8.38087 1.13472 12.7559L0.136671 13.6035L0.0409674 19.7559C-0.0273919 25.1699 0.0136237 25.9492 0.410108 26.3457C1.03901 26.9746 68.8925 27.043 69.5078 26.4277C70.123 25.8262 69.6171 21.0274 68.6328 17.9375C68.1816 16.543 67.8124 14.9297 67.8124 14.3555C67.8124 13.0156 66.7871 12.0449 63.6835 10.418C62.4257 9.76173 59.8554 8.17579 57.9687 6.90431C49.7519 1.33985 39.2246 -0.779287 28.3007 0.943369ZM43.4765 3.39063C47.291 4.01954 49.1914 4.60743 52.3906 6.13868C55.4941 7.61524 56.5878 8.42188 55.0703 8.09376C53.4023 7.73829 48.8632 7.39649 43.4765 7.21876L37.871 7.04103L36.4628 6.12501C33.0175 3.86915 28.9707 4.07423 26.2089 6.63087C25.539 7.2461 25.2246 7.31446 21.6972 7.46485C19.6191 7.56056 16.871 7.82032 15.5859 8.05274C11.5937 8.77735 11.8671 8.53126 17.2675 6.45313C26.5097 2.92579 34.8222 1.94142 43.4765 3.39063ZM34.0429 7.08204C34.6445 7.35548 35.5878 7.95704 36.1484 8.39454L37.1601 9.21485L44.2148 9.37892C55.1796 9.65235 58.871 10.2266 62.7265 12.2637C66.1171 14.0684 66.6914 14.6563 64.4765 14.0684C58.6113 12.4961 50.3671 11.4844 41.9316 11.293C35.5195 11.1426 35.041 11.1016 34.9042 10.6231C34.7128 9.84376 29.1074 9.85743 28.8613 10.6367C28.6699 11.2383 28.4511 11.2656 18.7304 12.1953C13.371 12.7012 7.73823 13.5215 4.67573 14.2324C1.74995 14.916 1.70894 14.8203 4.19722 13.3164C7.39644 11.3613 16.2421 9.57032 23.1738 9.46095L26.5371 9.39259L27.5488 8.40821C29.4355 6.57618 31.8691 6.07032 34.0429 7.08204ZM32.9492 14.2871L32.9082 16.2695L31.9101 16.3516L30.8984 16.4336V14.3691V12.3047H31.9511H32.9902L32.9492 14.2871ZM28.7109 15.5723C28.7109 18.457 28.8613 18.5938 31.9511 18.5938C34.9453 18.5938 34.9999 18.5391 34.9999 15.668V13.3984H35.957H36.914V17.0899V20.7813H31.8554H26.7968V17.0899V13.3984H27.7539H28.7109V15.5723ZM50.4492 14.0957C54.6191 14.5059 60.5527 15.4766 64.2441 16.3379L66.2949 16.8301L66.9101 19.0039C67.2519 20.1934 67.621 21.9434 67.7167 22.8867L67.8945 24.6094H35.041H2.18745V20.7949V16.9805L3.26753 16.6797C5.97456 15.9551 18.4843 14.2461 23.7617 13.877L24.6914 13.8086L24.6367 17.8281C24.5546 23.4883 23.8027 22.9688 31.9921 22.9688C40.1816 22.9688 39.4296 23.4883 39.3749 17.8281C39.3476 15.6133 39.3476 13.7402 39.3613 13.6582C39.3886 13.4121 46.1015 13.6719 50.4492 14.0957Z" fill="black"/>
</svg>
